<svg width="20" height="21" viewBox="0 0 20 21" fill="none" xmlns="http://www.w3.org/2000/svg">
<g id="Annual Icon" clip-path="url(#clip0_333_3833)">
<path id="Vector" d="M5.35522 14.2784C5.53008 14.3783 5.7523 14.3176 5.85431 14.1463L8.95449 8.88839C9.06742 9.05973 9.21678 9.20608 9.39893 9.30602L11.0383 10.2341C11.3552 10.4126 11.7377 10.4554 12.0875 10.3555C12.1676 10.7017 12.3935 11.0015 12.7068 11.18L14.3388 12.101C14.9763 12.4579 15.7924 12.2437 16.1567 11.6155C16.1822 11.5691 16.2077 11.5227 16.2295 11.4727C17.7632 7.739 16.3206 3.45558 12.8816 1.5102C9.43536 -0.428049 4.93627 0.492886 2.40075 3.65548C1.95631 4.23017 2.06924 5.04759 2.65576 5.48307C2.69948 5.5152 2.74319 5.54375 2.79055 5.57231L4.42261 6.49681C4.62298 6.61104 4.84884 6.66815 5.07835 6.66815C5.2095 6.66815 5.337 6.64673 5.46086 6.60747C5.54465 6.95728 5.77416 7.26069 6.0911 7.43917L7.73044 8.36724C7.90895 8.46719 8.11296 8.52787 8.32061 8.53501L5.22407 13.7893C5.12207 13.9607 5.184 14.1784 5.35886 14.2784H5.35522ZM11.3989 9.61657L9.75959 8.6885C9.47543 8.52787 9.37707 8.17092 9.54101 7.88893L12.8015 2.3526C13.439 3.02367 13.5629 3.91605 13.49 5.15824C13.3625 6.43256 13.0201 7.67475 12.4809 8.83842C12.2805 9.30245 12.0365 9.93069 11.3953 9.613L11.3989 9.61657ZM15.5483 11.2086C15.4171 11.5048 15.0638 11.6441 14.7614 11.5156C14.7396 11.5048 14.7177 11.4977 14.6995 11.4834L13.0674 10.5625C12.7942 10.4054 12.6922 10.0628 12.8379 9.78791C13.8069 7.82824 14.5283 5.59729 14.1312 3.41275C16.0692 5.54018 16.6193 8.55642 15.5483 11.2121V11.2086ZM4.78691 5.87929L3.15485 4.95835C2.86706 4.79772 2.7687 4.44077 2.93263 4.15878C2.94356 4.13736 2.95813 4.11951 2.9727 4.10167C4.78327 1.86001 7.7268 0.817712 10.5793 1.40311C9.286 1.80647 7.82516 2.88446 6.53554 4.42649C6.22225 4.80129 5.92717 5.20108 5.64666 5.60443C5.50094 5.90784 5.12935 6.03635 4.8197 5.89356C4.80877 5.88999 4.80148 5.88286 4.79055 5.87929H4.78691ZM8.09474 7.74971L6.4554 6.82164C6.30968 6.73954 6.20768 6.6039 6.1676 6.44327C6.13117 6.29692 6.15667 6.14343 6.24046 6.01493C6.51004 5.61514 6.80148 5.2332 7.11478 4.86554C8.24411 3.5127 9.96724 2.09917 11.4354 1.94925C11.6831 1.91712 11.9308 1.93497 12.1712 1.99922L8.91077 7.53554C8.74684 7.81396 8.37889 7.91034 8.09474 7.74971Z" fill="#0C3D6E"/>
<path id="Vector_2" d="M17.898 16.3202C17.8324 16.2059 17.7122 16.1346 17.5774 16.1346H4.06193L2.44809 12.1724C2.39344 12.0367 2.25865 11.9475 2.10929 11.9475H0.364299C0.160291 11.9475 0 12.1117 0 12.3116C0 12.3544 0.00728597 12.3973 0.0255009 12.4365L2.35701 18.1478V20.1431C2.36066 20.3394 2.52823 20.4965 2.7286 20.4929C2.92532 20.4894 3.08197 20.3359 3.08561 20.1431V18.4369H14.8525V20.1431C14.8525 20.3394 15.0164 20.5001 15.2168 20.5001C15.4171 20.5001 15.5811 20.3394 15.5811 20.1431V18.4369H16.408L17.4645 20.318C17.5301 20.4323 17.6503 20.5036 17.7851 20.5036H19.6321C19.8324 20.5036 19.9964 20.343 19.9964 20.1467C19.9964 20.086 19.9818 20.0253 19.9526 19.9754L17.898 16.3273V16.3202ZM18 19.7862L16.9435 17.905C16.878 17.7908 16.7577 17.7194 16.623 17.7194H2.96539L0.899818 12.6614H1.86157L3.47541 16.6236C3.53005 16.7592 3.66485 16.8485 3.81421 16.8485H17.3625L19.0164 19.7826H18V19.7862Z" fill="#0C3D6E"/>
</g>
<defs>
<clipPath id="clip0_333_3833">
<rect width="20" height="20" fill="white" transform="translate(0 0.5)"/>
</clipPath>
</defs>
</svg>
