<svg width="20" height="20" viewBox="0 0 20 20" fill="none" xmlns="http://www.w3.org/2000/svg">
<g id="Box">
<path id="icon" d="M2.6417 6.20008L10 10.4584L17.3083 6.22506M10 18.0084V10.4501M14.1667 11.0334V7.98343L6.25836 3.41673M8.27501 2.06675L3.82502 4.54177C2.81668 5.10011 1.9917 6.50009 1.9917 7.65009V12.3584C1.9917 13.5084 2.81668 14.9084 3.82502 15.4668L8.27501 17.9418C9.22501 18.4668 10.7833 18.4668 11.7333 17.9418L16.1834 15.4668C17.1917 14.9084 18.0167 13.5084 18.0167 12.3584V7.65009C18.0167 6.50009 17.1917 5.10011 16.1834 4.54177L11.7333 2.06675C10.775 1.53341 9.22501 1.53341 8.27501 2.06675Z" stroke="#0C3D6E" stroke-width="1.5" stroke-linecap="round" stroke-linejoin="round"/>
</g>
</svg>
