<svg width="110" height="68" viewBox="0 0 110 68" fill="none" xmlns="http://www.w3.org/2000/svg">
<g id="Layer_1-2">
<g id="Group">
<g id="Group_2">
<g id="Group_3">
<g id="Group_4">
<g id="_x3C_Radial_Repeat_x3E_">
<path id="Vector" d="M87.2717 20.7232C88.3843 20.7232 89.2862 19.8151 89.2862 18.6948C89.2862 17.5745 88.3843 16.6664 87.2717 16.6664C86.1592 16.6664 85.2573 17.5745 85.2573 18.6948C85.2573 19.8151 86.1592 20.7232 87.2717 20.7232Z" fill="#0C3D6E"/>
</g>
<g id="_x3C_Radial_Repeat_x3E_-2">
<path id="Vector_2" d="M93.8917 18.4378C95.0043 18.4378 95.9062 17.5297 95.9062 16.4094C95.9062 15.2891 95.0043 14.381 93.8917 14.381C92.7792 14.381 91.8773 15.2891 91.8773 16.4094C91.8773 17.5297 92.7792 18.4378 93.8917 18.4378Z" fill="#0C3D6E"/>
</g>
<path id="Vector_3" d="M101.074 20.3823C100.713 19.3223 99.567 18.759 98.5144 19.1222C98.1267 19.2556 97.8078 19.4978 97.5747 19.8017C96.1712 20.6911 94.3285 21.3977 93.1311 21.8029C93.0845 21.7856 93.0379 21.7683 92.9888 21.7535C92.1275 21.5064 91.2295 22.0105 90.9841 22.8801C90.7388 23.7473 91.2393 24.6516 92.103 24.8987C92.8489 25.1112 93.6218 24.7628 93.9727 24.1006C95.9773 23.3076 97.8666 23.0877 98.7868 23.0284C99.1205 23.0926 99.4738 23.0753 99.8198 22.9567C100.872 22.5935 101.432 21.4397 101.071 20.3798H101.074V20.3823Z" fill="#0C3D6E"/>
<g id="_x3C_Radial_Repeat_x3E_-3">
<path id="Vector_4" d="M97.8249 29.9858C98.9375 29.9858 99.8394 29.0777 99.8394 27.9574C99.8394 26.8371 98.9375 25.929 97.8249 25.929C96.7124 25.929 95.8105 26.8371 95.8105 27.9574C95.8105 29.0777 96.7124 29.9858 97.8249 29.9858Z" fill="#0C3D6E"/>
</g>
<g id="_x3C_Radial_Repeat_x3E_-4">
<path id="Vector_5" d="M91.205 32.2712C92.3175 32.2712 93.2194 31.363 93.2194 30.2428C93.2194 29.1225 92.3175 28.2143 91.205 28.2143C90.0924 28.2143 89.1905 29.1225 89.1905 30.2428C89.1905 31.363 90.0924 32.2712 91.205 32.2712Z" fill="#0C3D6E"/>
</g>
<g id="_x3C_Radial_Repeat_x3E_-5">
<path id="Vector_6" d="M85.9272 27.6411C87.0397 27.6411 87.9416 26.733 87.9416 25.6127C87.9416 24.4924 87.0397 23.5843 85.9272 23.5843C84.8146 23.5843 83.9127 24.4924 83.9127 25.6127C83.9127 26.733 84.8146 27.6411 85.9272 27.6411Z" fill="#0C3D6E"/>
</g>
</g>
<g id="Group_5">
<path id="Vector_7" d="M105.522 30.8259C104.261 33.047 102.44 34.9124 100.269 36.2292C100.291 36.2984 100.325 36.3775 100.347 36.4467C102.575 35.1075 104.44 33.1952 105.738 30.9173C105.669 30.8827 105.591 30.8604 105.522 30.8259ZM84.7494 10.2055C82.5092 11.5446 80.6444 13.4569 79.3587 15.7473C79.4372 15.7695 79.5059 15.8041 79.5746 15.8387C80.8358 13.6175 82.6564 11.7522 84.8279 10.4229C84.8058 10.3538 84.7715 10.2747 84.7494 10.2055ZM77.3688 23.567C77.4031 26.2921 78.154 28.8345 79.4274 31.0334C79.4961 30.9864 79.5525 30.942 79.6212 30.895C78.3699 28.7431 77.6313 26.2576 77.597 23.6016C77.5185 23.5892 77.4498 23.5892 77.3688 23.567ZM92.5937 38.3936H92.5471C89.9193 38.3936 87.4411 37.7067 85.2916 36.5035C85.2573 36.5727 85.2009 36.6295 85.1542 36.6863C87.338 37.9241 89.8628 38.6209 92.5447 38.6209H92.6232C92.6011 38.5517 92.5888 38.4726 92.5888 38.3911H92.5937V38.3936ZM105.672 15.6213C105.603 15.6682 105.547 15.7127 105.478 15.7596C106.729 17.9116 107.468 20.3971 107.502 23.0531C107.581 23.0654 107.662 23.0753 107.73 23.0877C107.696 20.3625 106.945 17.8202 105.672 15.6213ZM92.5496 8.02885H92.4711C92.4931 8.10792 92.5054 8.17709 92.5054 8.25863H92.552C95.1799 8.25863 97.6581 8.94548 99.8075 10.1487C99.8418 10.0795 99.886 10.0227 99.9449 9.96587C97.7611 8.73053 95.2363 8.03133 92.5545 8.03133H92.5496V8.02885Z" fill="#0C3D6E"/>
<g id="Group_6">
<g id="_x3C_Radial_Repeat_x3E_-6">
<path id="Vector_8" d="M82.0307 37.052C83.6284 37.052 84.9236 35.7478 84.9236 34.139C84.9236 32.5303 83.6284 31.2261 82.0307 31.2261C80.4331 31.2261 79.1379 32.5303 79.1379 34.139C79.1379 35.7478 80.4331 37.052 82.0307 37.052Z" fill="#00BDD6"/>
</g>
<g id="_x3C_Radial_Repeat_x3E_-7">
<path id="Vector_9" d="M77.9896 22.4749C79.5872 22.4749 80.8824 21.1708 80.8824 19.562C80.8824 17.9532 79.5872 16.6491 77.9896 16.6491C76.3919 16.6491 75.0967 17.9532 75.0967 19.562C75.0967 21.1708 76.3919 22.4749 77.9896 22.4749Z" fill="#F1762D"/>
</g>
<g id="_x3C_Radial_Repeat_x3E_-8">
<path id="Vector_10" d="M88.5084 11.6608C90.1061 11.6608 91.4013 10.3566 91.4013 8.74782C91.4013 7.13905 90.1061 5.83488 88.5084 5.83488C86.9107 5.83488 85.6155 7.13905 85.6155 8.74782C85.6155 10.3566 86.9107 11.6608 88.5084 11.6608Z" fill="#F7AD81"/>
</g>
<g id="_x3C_Radial_Repeat_x3E_-9">
<path id="Vector_11" d="M103.066 15.4261C104.664 15.4261 105.959 14.1219 105.959 12.5131C105.959 10.9044 104.664 9.6002 103.066 9.6002C101.468 9.6002 100.173 10.9044 100.173 12.5131C100.173 14.1219 101.468 15.4261 103.066 15.4261Z" fill="#FCE4D5"/>
</g>
<g id="_x3C_Radial_Repeat_x3E_-10">
<path id="Vector_12" d="M107.107 30.0031C108.705 30.0031 110 28.699 110 27.0902C110 25.4814 108.705 24.1772 107.107 24.1772C105.509 24.1772 104.214 25.4814 104.214 27.0902C104.214 28.699 105.509 30.0031 107.107 30.0031Z" fill="#0C3D6E"/>
</g>
<g id="_x3C_Radial_Repeat_x3E_-11">
<path id="Vector_13" d="M96.5907 40.8173C98.1884 40.8173 99.4836 39.5131 99.4836 37.9044C99.4836 36.2956 98.1884 34.9914 96.5907 34.9914C94.9931 34.9914 93.6979 36.2956 93.6979 37.9044C93.6979 39.5131 94.9931 40.8173 96.5907 40.8173Z" fill="#0089B3"/>
</g>
</g>
</g>
</g>
<g id="Group_7">
<path id="Vector_14" d="M14.8839 24.4268V36.3256C14.8839 39.8834 13.5516 43.2065 11.2353 45.7167C8.80128 48.343 5.73175 49.6821 2.31625 49.6821C1.04281 49.6821 0 48.6321 0 47.3498C0 46.0675 1.04281 45.0175 2.31625 45.0175C6.6028 45.0175 10.2514 41.052 10.2514 36.3281V24.4293C10.2514 22.9123 8.80128 21.5707 7.29718 21.5707C6.08017 21.5707 4.98093 20.4638 4.98093 19.2383C4.98093 18.0129 6.08017 16.906 7.29718 16.906C11.4684 16.906 14.8864 20.2884 14.8864 24.4293H14.8839V24.4268Z" fill="#0C3D6E"/>
<path id="Vector_15" d="M25.2531 3.31232V35.5078C25.2531 36.7901 24.2103 37.8401 22.9368 37.8401C21.6634 37.8401 20.6206 36.7901 20.6206 35.5078V3.31232C20.6206 2.03004 21.7222 0.979996 22.9368 0.979996C24.1514 0.979996 25.2531 2.03004 25.2531 3.31232Z" fill="#0C3D6E"/>
<path id="Vector_16" d="M43.4396 16.9035C47.8979 16.9035 51.5489 20.5775 51.5489 25.0692V29.677C51.5489 31.5424 53.1708 33.1755 55.0233 33.1755H59.1945V37.8401H55.0233C52.7659 37.8401 50.7957 36.9655 49.2302 35.3917C47.6672 36.9655 45.6969 37.8401 43.4396 37.8401H33.0704C31.797 37.8401 30.7542 36.7901 30.7542 35.5078C30.7542 34.2255 31.797 33.1755 33.0704 33.1755H43.4396C45.2921 33.1755 46.914 31.5424 46.914 29.677V25.0692C46.914 23.2038 45.2921 21.5707 43.4396 21.5707H38.8635C37.011 21.5707 35.3891 23.2038 35.3891 25.0692C35.3891 26.3514 34.3463 27.4015 33.0729 27.4015C31.7994 27.4015 30.7566 26.3514 30.7566 25.0692C30.7566 20.5799 34.4052 16.9035 38.866 16.9035H43.442H43.4396Z" fill="#0C3D6E"/>
<path id="Vector_17" d="M74.7017 35.5078C74.7017 36.795 73.6638 37.8401 72.3854 37.8401H57.4524C56.0637 37.8401 55.0773 36.8494 55.0773 35.5078C55.0773 34.1662 56.0612 33.1755 57.4524 33.1755H72.3854C73.6638 33.1755 74.7017 34.2206 74.7017 35.5078Z" fill="#0C3D6E"/>
</g>
</g>
<g id="Group_8">
<path id="Vector_18" d="M13.9073 55.4956C13.9073 48.5258 19.3152 43.0113 26.1658 43.0113C33.0164 43.0113 38.4243 48.5258 38.4243 55.4956C38.4243 62.4654 33.0164 67.98 26.1658 67.98C19.3152 67.98 13.9073 62.4654 13.9073 55.4956ZM35.4308 55.4956C35.4308 50.0873 31.3332 45.8204 26.1683 45.8204C21.0033 45.8204 16.9401 50.0848 16.9401 55.4956C16.9401 60.9064 21.0033 65.1362 26.1683 65.1362C31.3332 65.1362 35.4308 60.8718 35.4308 55.4956Z" fill="#0C3D6E"/>
<path id="Vector_19" d="M42.3183 57.0917C42.3183 52.6173 45.1424 49.6006 49.4118 49.6006C50.1013 49.6006 50.6852 50.1565 50.6852 50.8829C50.6852 51.6092 50.0988 52.1651 49.4118 52.1651C46.8624 52.1651 45.0737 53.865 45.0737 57.0892V66.4852C45.0737 67.2833 44.453 67.9059 43.6972 67.9059C42.9415 67.9059 42.3207 67.2808 42.3207 66.4852V57.0892L42.3183 57.0917Z" fill="#0C3D6E"/>
<path id="Vector_20" d="M56.5053 65.2054V66.4877C56.5053 67.2857 55.8845 67.9083 55.1288 67.9083C54.3731 67.9083 53.7523 67.2833 53.7523 66.4877V44.469C53.7523 43.7055 54.3387 43.0829 55.1288 43.0829C55.9189 43.0829 56.5053 43.708 56.5053 44.469V52.3752C58.0904 50.6753 60.3625 49.6006 62.9462 49.6006C68.0081 49.6006 71.8652 53.6574 71.8652 58.7891C71.8652 63.9207 68.0081 67.9775 62.9462 67.9775C60.3625 67.9775 58.0904 66.9374 56.5053 65.2029V65.2054ZM69.0754 58.7891C69.0754 55.0435 66.2856 52.1651 62.7744 52.1651C59.2632 52.1651 56.6452 54.9051 56.5078 58.5099V59.0658C56.6452 62.673 59.3319 65.4105 62.7744 65.4105C66.2169 65.4105 69.0754 62.5321 69.0754 58.7866V58.7891Z" fill="#0C3D6E"/>
<path id="Vector_21" d="M75.4108 45.6475C75.4108 44.6765 76.1689 43.9131 77.1332 43.9131C78.0975 43.9131 78.8557 44.6765 78.8557 45.6475C78.8557 46.6185 78.0632 47.3819 77.1332 47.3819C76.2033 47.3819 75.4108 46.5839 75.4108 45.6475ZM75.7567 51.0558C75.7567 50.2924 76.3432 49.6698 77.1332 49.6698C77.9233 49.6698 78.5097 50.2948 78.5097 51.0558V66.4877C78.5097 67.2857 77.889 67.9083 77.1332 67.9083C76.3775 67.9083 75.7567 67.2833 75.7567 66.4877V51.0558Z" fill="#0C3D6E"/>
<path id="Vector_22" d="M81.3339 51.2312C81.3339 50.5024 81.9203 49.9489 82.6073 49.9489H84.4329V46.8285C84.4329 46.0304 85.0536 45.4424 85.8094 45.4424C86.5651 45.4424 87.1859 46.0329 87.1859 46.8285V49.9489H91.7325C92.422 49.9489 93.0059 50.5048 93.0059 51.2312C93.0059 51.9576 92.4195 52.5135 91.7325 52.5135H87.1859V60.3505C87.1859 63.5748 89.0114 65.3092 91.7325 65.3092C92.422 65.3092 93.0059 65.8997 93.0059 66.5915C93.0059 67.3203 92.4195 67.9083 91.7325 67.9083C87.4631 67.9083 84.4329 64.9954 84.4329 60.348V52.511H82.6073C81.9179 52.511 81.3339 51.9205 81.3339 51.2288V51.2312Z" fill="#0C3D6E"/>
</g>
</g>
</g>
</svg>
