<svg width="22" height="24" viewBox="0 0 22 24" fill="none" xmlns="http://www.w3.org/2000/svg">
<g id="Building">
<path id="icon" d="M1.25 22.625H16.25M5 16.7812H7.25M10.25 16.7812H12.5M5 12H7.25M10.25 12H12.5M5 7.21875H7.25M10.25 7.21875H12.5M12.5 1.375H5C2.75 1.375 2 3.27687 2 5.625V22.625H15.5V5.625C15.5 3.27687 14.75 1.375 12.5 1.375Z" stroke="#0C3D6E" stroke-width="1.5" stroke-miterlimit="10" stroke-linecap="round" stroke-linejoin="round"/>
<path id="icon_2" d="M15 22.625H21.25M19.6875 7.625H16.5625C15.625 7.625 15.3125 8.9675 15.3125 10.625V22.625H20.9375V10.625C20.9375 8.9675 20.625 7.625 19.6875 7.625Z" stroke="#0C3D6E" stroke-width="1.5" stroke-miterlimit="10" stroke-linecap="round" stroke-linejoin="round"/>
</g>
</svg>
