<svg width="20" height="22" viewBox="0 0 20 22" fill="none" xmlns="http://www.w3.org/2000/svg">
<g id="Clock Out">
<g id="Group">
<path id="Vector" d="M10.0001 12.5419C9.64601 12.5419 9.33317 12.312 9.22853 11.9744L7.40401 6.08925C7.27222 5.66434 7.51083 5.21344 7.93699 5.08204C8.36316 4.95063 8.8154 5.18889 8.9472 5.61344L10.5947 10.9275L14.9686 10.9015H14.9737C15.4176 10.9015 15.7786 11.2589 15.7811 11.7019C15.7836 12.1466 15.4245 12.5091 14.9784 12.512L10.0048 12.5416H10.0001V12.5419Z" fill="#0C3D6E"/>
<path id="Vector_2" d="M18.2408 6.03612C16.9905 4.22096 15.2156 2.89786 13.1535 2.21953L14.5657 1.52783C14.9661 1.33181 15.1309 0.849136 14.9343 0.45022C14.7376 0.0509437 14.2535 -0.113316 13.8534 0.0827125L10.7801 1.58848C10.5509 1.70076 10.3789 1.89534 10.2964 2.1365C10.2138 2.37765 10.2305 2.63613 10.3431 2.86501L11.8533 5.92926C11.9938 6.2141 12.2806 6.37944 12.5786 6.37944C12.698 6.37944 12.8197 6.35273 12.9341 6.29677C13.3346 6.10074 13.4993 5.61807 13.3027 5.21916L12.5652 3.72277C14.3274 4.28378 15.8445 5.40363 16.9087 6.94839C18.1763 8.78846 18.6492 11.0105 18.2404 13.205C17.8316 15.3996 16.59 17.3043 14.7449 18.5682C12.8994 19.8317 10.6708 20.3032 8.46967 19.896C6.26858 19.4884 4.35824 18.2505 3.09059 16.4108C1.82295 14.5707 1.35007 12.3487 1.75886 10.1542C2.38055 6.81626 4.93468 4.20472 8.26582 3.50111C8.70213 3.40905 8.98093 2.98162 8.8886 2.5466C8.79627 2.11159 8.36755 1.83361 7.93125 1.92567C3.9585 2.76465 0.912322 5.87908 0.170781 9.85993C-0.31658 12.4776 0.247175 15.1278 1.75922 17.3224C3.27091 19.5169 5.54949 20.9935 8.17494 21.4794C8.79084 21.5935 9.40782 21.6498 10.0212 21.6498C12.022 21.6498 13.9747 21.0494 15.6599 19.896C17.861 18.3888 19.3419 16.1169 19.8292 13.4993C20.3166 10.8816 19.7528 8.23142 18.2408 6.03684V6.03612Z" fill="#0C3D6E"/>
</g>
</g>
</svg>
