<svg width="22" height="20" viewBox="0 0 22 20" fill="none" xmlns="http://www.w3.org/2000/svg">
<g id="Clock In">
<g id="Group">
<path id="Vector" d="M16.3658 10.5007H11.5418C11.1092 10.5007 10.7587 10.1509 10.7587 9.71989V3.7452C10.7587 3.31381 11.1095 2.96436 11.5418 2.96436C11.9741 2.96436 12.325 3.31416 12.325 3.7452V8.93869H16.3655C16.7981 8.93869 17.1486 9.2885 17.1486 9.71954C17.1486 10.1506 16.7978 10.5004 16.3655 10.5004L16.3658 10.5007Z" fill="#0C3D6E"/>
<path id="Vector_2" d="M19.1041 3.6128C15.7576 -0.544932 9.64259 -1.21268 5.47287 2.12395C1.654 5.17975 0.771451 10.5504 3.22032 14.6266L1.74179 14.2435C1.32352 14.1349 0.89542 14.3857 0.78655 14.803C0.67768 15.2204 0.929134 15.6469 1.34776 15.7555L4.56258 16.5881C4.64055 16.6081 4.71921 16.6182 4.79718 16.6182C4.96048 16.6182 5.12133 16.5748 5.26567 16.4904C5.4792 16.3651 5.63126 16.1644 5.69342 15.9256L6.52856 12.7207C6.63743 12.3033 6.38598 11.8768 5.96736 11.7683C5.54908 11.6601 5.12098 11.9104 5.01211 12.3278L4.60437 13.8923C2.50037 10.4667 3.22945 5.92102 6.4527 3.34213C9.94883 0.544749 15.0759 1.10465 17.8816 4.59044C19.2407 6.27888 19.8588 8.39417 19.6225 10.5466C19.3861 12.699 18.323 14.6304 16.6296 15.9855C14.0536 18.0465 10.5188 18.354 7.62393 16.7688C7.24464 16.5615 6.76842 16.6995 6.56017 17.0773C6.35191 17.4555 6.49063 17.9303 6.86992 18.1379C8.33861 18.9422 9.94532 19.3379 11.5436 19.3379C13.7024 19.3379 15.845 18.6159 17.6101 17.2037C19.6302 15.5874 20.898 13.2837 21.18 10.7167C21.462 8.14976 20.7249 5.62689 19.1037 3.61315L19.1041 3.6128Z" fill="#0C3D6E"/>
</g>
</g>
</svg>
