<svg width="24" height="24" viewBox="0 0 24 24" fill="none" xmlns="http://www.w3.org/2000/svg">
<g id="Job icon">
<g id="Group">
<g id="Vector">
<mask id="path-1-inside-1_435_12796" fill="white">
<path fill-rule="evenodd" clip-rule="evenodd" d="M6 6V4.5C6 2.01472 8.01472 0 10.5 0H13.5C15.9853 0 18 2.01472 18 4.5V6H21C22.6569 6 24 7.34314 24 9V14.3562C20.2644 15.7421 16.2223 16.4998 12 16.4998C7.77771 16.4998 3.73556 15.742 0 14.356V9C0 7.34314 1.34314 6 3 6H6ZM9 4.5C9 3.67158 9.67158 3 10.5 3H13.5C14.3285 3 15 3.67158 15 4.5V6H9V4.5ZM10.5 12C10.5 11.1716 11.1716 10.5 12 10.5H12.015C12.8435 10.5 13.515 11.1716 13.515 12C13.515 12.8285 12.8435 13.5 12.015 13.5H12C11.1716 13.5 10.5 12.8285 10.5 12Z"/>
</mask>
<path fill-rule="evenodd" clip-rule="evenodd" d="M6 6V4.5C6 2.01472 8.01472 0 10.5 0H13.5C15.9853 0 18 2.01472 18 4.5V6H21C22.6569 6 24 7.34314 24 9V14.3562C20.2644 15.7421 16.2223 16.4998 12 16.4998C7.77771 16.4998 3.73556 15.742 0 14.356V9C0 7.34314 1.34314 6 3 6H6ZM9 4.5C9 3.67158 9.67158 3 10.5 3H13.5C14.3285 3 15 3.67158 15 4.5V6H9V4.5ZM10.5 12C10.5 11.1716 11.1716 10.5 12 10.5H12.015C12.8435 10.5 13.515 11.1716 13.515 12C13.515 12.8285 12.8435 13.5 12.015 13.5H12C11.1716 13.5 10.5 12.8285 10.5 12Z" fill="#0C3D6E"/>
<path d="M6 6V24.6064H24.6064V6H6ZM18 6H-0.606379V24.6064H18V6ZM24 14.3562L30.4717 31.8008L42.6064 27.299V14.3562H24ZM0 14.356H-18.6064V27.2983L-6.47237 31.8004L0 14.356ZM15 6V24.6064H33.6064V6H15ZM9 6H-9.60638V24.6064H9V6ZM24.6064 6V4.5H-12.6064V6H24.6064ZM24.6064 4.5C24.6064 12.2907 18.2907 18.6064 10.5 18.6064V-18.6064C-2.26129 -18.6064 -12.6064 -8.26129 -12.6064 4.5H24.6064ZM10.5 18.6064H13.5V-18.6064H10.5V18.6064ZM13.5 18.6064C5.70913 18.6064 -0.606379 12.2905 -0.606379 4.5H36.6064C36.6064 -8.26109 26.2616 -18.6064 13.5 -18.6064V18.6064ZM-0.606379 4.5V6H36.6064V4.5H-0.606379ZM18 24.6064H21V-12.6064H18V24.6064ZM21 24.6064C12.3807 24.6064 5.39362 17.619 5.39362 9H42.6064C42.6064 -2.93269 32.9331 -12.6064 21 -12.6064V24.6064ZM5.39362 9V14.3562H42.6064V9H5.39362ZM17.5283 -3.08842C15.8328 -2.45942 13.9804 -2.10653 12 -2.10653V35.1062C18.4643 35.1062 24.696 33.9435 30.4717 31.8008L17.5283 -3.08842ZM12 -2.10653C10.0196 -2.10653 8.16731 -2.45944 6.47237 -3.08831L-6.47237 31.8004C-0.696204 33.9435 5.53582 35.1062 12 35.1062V-2.10653ZM18.6064 14.356V9H-18.6064V14.356H18.6064ZM18.6064 9C18.6064 17.6192 11.6192 24.6064 3 24.6064V-12.6064C-8.93287 -12.6064 -18.6064 -2.93287 -18.6064 9H18.6064ZM3 24.6064H6V-12.6064H3V24.6064ZM27.6064 4.5C27.6064 13.9476 19.9476 21.6064 10.5 21.6064V-15.6064C-0.604439 -15.6064 -9.60638 -6.60444 -9.60638 4.5H27.6064ZM10.5 21.6064H13.5V-15.6064H10.5V21.6064ZM13.5 21.6064C4.05219 21.6064 -3.60638 13.9474 -3.60638 4.5H33.6064C33.6064 -6.6042 24.6047 -15.6064 13.5 -15.6064V21.6064ZM-3.60638 4.5V6H33.6064V4.5H-3.60638ZM15 -12.6064H9V24.6064H15V-12.6064ZM27.6064 6V4.5H-9.60638V6H27.6064ZM29.1064 12C29.1064 21.4476 21.4476 29.1064 12 29.1064V-8.10638C0.895561 -8.10638 -8.10638 0.895561 -8.10638 12H29.1064ZM12 29.1064H12.015V-8.10638H12V29.1064ZM12.015 29.1064C2.56719 29.1064 -5.09138 21.4474 -5.09138 12H32.1214C32.1214 0.895803 23.1197 -8.10638 12.015 -8.10638V29.1064ZM-5.09138 12C-5.09138 2.55243 2.56743 -5.10638 12.015 -5.10638V32.1064C23.1195 32.1064 32.1214 23.1045 32.1214 12H-5.09138ZM12.015 -5.10638H12V32.1064H12.015V-5.10638ZM12 -5.10638C21.4474 -5.10638 29.1064 2.55219 29.1064 12H-8.10638C-8.10638 23.1047 0.895803 32.1064 12 32.1064V-5.10638Z" fill="#0C3D6E" mask="url(#path-1-inside-1_435_12796)"/>
</g>
<g id="Vector_2">
<mask id="path-3-inside-2_435_12796" fill="white">
<path d="M0 17.5383V20.9999C0 22.6568 1.34314 23.9999 3 23.9999H21C22.6569 23.9999 24 22.6568 24 20.9999V17.5383C20.2308 18.8105 16.1946 19.4997 12 19.4997C7.80544 19.4997 3.76919 18.8105 0 17.5383Z"/>
</mask>
<path d="M0 17.5383V20.9999C0 22.6568 1.34314 23.9999 3 23.9999H21C22.6569 23.9999 24 22.6568 24 20.9999V17.5383C20.2308 18.8105 16.1946 19.4997 12 19.4997C7.80544 19.4997 3.76919 18.8105 0 17.5383Z" fill="#0C3D6E"/>
<path d="M0 17.5383L5.95013 -0.0909996L-18.6064 -8.37915V17.5383H0ZM24 17.5383H42.6064V-8.37911L18.0499 -0.0910072L24 17.5383ZM-18.6064 17.5383V20.9999H18.6064V17.5383H-18.6064ZM-18.6064 20.9999C-18.6064 32.933 -8.93269 42.6063 3 42.6063V5.3935C11.619 5.3935 18.6064 12.3806 18.6064 20.9999H-18.6064ZM3 42.6063H21V5.3935H3V42.6063ZM21 42.6063C32.9329 42.6063 42.6064 32.9328 42.6064 20.9999H5.39362C5.39362 12.3808 12.3809 5.3935 21 5.3935V42.6063ZM42.6064 20.9999V17.5383H5.39362V20.9999H42.6064ZM18.0499 -0.0910072C16.1725 0.542643 14.1448 0.893351 12 0.893351V38.1061C18.2444 38.1061 24.2891 37.0783 29.9501 35.1677L18.0499 -0.0910072ZM12 0.893351C9.85522 0.893351 7.82749 0.542635 5.95013 -0.0909996L-5.95013 35.1677C-0.289122 37.0783 5.75567 38.1061 12 38.1061V0.893351Z" fill="#0C3D6E" mask="url(#path-3-inside-2_435_12796)"/>
</g>
</g>
</g>
</svg>
