<svg width="20" height="20" viewBox="0 0 20 20" fill="none" xmlns="http://www.w3.org/2000/svg">
<g id="Currency Coin Dollar">
<path id="Icon" d="M11.405 8.3733C11.5856 8.89522 12.1551 9.17192 12.677 8.99131C13.1989 8.81071 13.4756 8.2412 13.295 7.71928L11.405 8.3733ZM11 7.02778L11.0439 6.02874C11.0293 6.0281 11.0146 6.02778 11 6.02778V7.02778ZM9 10.0833V11.0833V10.0833ZM11 13.1389V14.1389V13.1389ZM9 13.1389L8.95606 14.1379C8.9707 14.1386 8.98535 14.1389 9 14.1389V13.1389ZM8.59502 11.7934C8.41442 11.2714 7.84491 10.9947 7.32299 11.1753C6.80107 11.3559 6.52438 11.9255 6.70498 12.4474L8.59502 11.7934ZM11 5.5C11 4.94771 10.5523 4.5 10 4.5C9.44771 4.5 9 4.94771 9 5.5H11ZM9 7.02778C9 7.58006 9.44771 8.02778 10 8.02778C10.5523 8.02778 11 7.58006 11 7.02778H9ZM11 13.1389C11 12.5866 10.5523 12.1389 10 12.1389C9.44771 12.1389 9 12.5866 9 13.1389H11ZM9 14.6667C9 15.2189 9.44771 15.6667 10 15.6667C10.5523 15.6667 11 15.2189 11 14.6667H9ZM13.295 7.71928C13.1312 7.246 12.8312 6.83053 12.4304 6.52819L11.2259 8.12476C11.3063 8.18545 11.3697 8.27137 11.405 8.3733L13.295 7.71928ZM12.4304 6.52819C12.0294 6.22567 11.5466 6.05085 11.0439 6.02874L10.9561 8.02681C11.0516 8.03101 11.1456 8.06425 11.2259 8.12476L12.4304 6.52819ZM11 6.02778H9V8.02778H11V6.02778ZM9 6.02778C8.33097 6.02778 7.69314 6.29864 7.22577 6.77466L8.6529 8.17584C8.74814 8.07884 8.87337 8.02778 9 8.02778V6.02778ZM7.22577 6.77466C6.75902 7.25006 6.5 7.89101 6.5 8.55555H8.5C8.5 8.40972 8.55705 8.27347 8.6529 8.17584L7.22577 6.77466ZM6.5 8.55555C6.5 9.2201 6.75902 9.86104 7.22577 10.3364L8.6529 8.93527C8.55705 8.83764 8.5 8.70139 8.5 8.55555H6.5ZM7.22577 10.3364C7.69314 10.8125 8.33098 11.0833 9 11.0833V9.08333C8.87337 9.08333 8.74814 9.03227 8.6529 8.93527L7.22577 10.3364ZM9 11.0833H11V9.08333H9V11.0833ZM11 11.0833C11.1266 11.0833 11.2519 11.1344 11.3471 11.2314L12.7742 9.83021C12.3069 9.35419 11.669 9.08333 11 9.08333V11.0833ZM11.3471 11.2314C11.4429 11.329 11.5 11.4653 11.5 11.6111H13.5C13.5 10.9466 13.241 10.3056 12.7742 9.83021L11.3471 11.2314ZM11.5 11.6111C11.5 11.7569 11.4429 11.8932 11.3471 11.9908L12.7742 13.392C13.241 12.9166 13.5 12.2757 13.5 11.6111H11.5ZM11.3471 11.9908C11.2519 12.0878 11.1266 12.1389 11 12.1389V14.1389C11.669 14.1389 12.3069 13.868 12.7742 13.392L11.3471 11.9908ZM11 12.1389H9V14.1389H11V12.1389ZM9.04393 12.1399C8.94836 12.1356 8.85435 12.1024 8.77414 12.0419L7.56959 13.6385C7.97056 13.941 8.45338 14.1158 8.95606 14.1379L9.04393 12.1399ZM8.77414 12.0419C8.6937 11.9812 8.6303 11.8953 8.59502 11.7934L6.70498 12.4474C6.86875 12.9207 7.16884 13.3361 7.56959 13.6385L8.77414 12.0419ZM9 5.5V7.02778H11V5.5H9ZM9 13.1389V14.6667H11V13.1389H9ZM17 10C17 13.866 13.866 17 10 17V19C14.9706 19 19 14.9706 19 10H17ZM10 17C6.13401 17 3 13.866 3 10H1C1 14.9706 5.02944 19 10 19V17ZM3 10C3 6.13401 6.13401 3 10 3V1C5.02944 1 1 5.02944 1 10H3ZM10 3C13.866 3 17 6.13401 17 10H19C19 5.02944 14.9706 1 10 1V3Z" fill="#0C3D6E"/>
</g>
</svg>
