<svg width="26" height="26" viewBox="0 0 26 26" fill="none" xmlns="http://www.w3.org/2000/svg">
<g id="Group">
<g id="Group_2">
<path id="Vector" d="M10.8204 20.9738L9.28976 20.9693C9.28976 20.9693 8.51364 20.9174 8.43473 20.0525L8.42392 18.8717C8.42068 18.5774 8.24773 18.3135 7.98398 18.2075C7.73644 18.1082 7.41216 17.9639 7.08571 17.78C6.81655 17.6301 6.48579 17.6797 6.2696 17.9041L5.60697 18.5943C5.60697 18.5943 4.94111 19.2427 4.23309 18.477L2.9446 17.1462C2.9446 17.1462 2.27442 16.4764 3.12296 15.5945L3.69586 14.9979C3.90016 14.7859 3.95421 14.4645 3.83746 14.1904C3.73261 13.9446 3.60398 13.6119 3.49264 13.2284C3.404 12.9262 3.13593 12.7198 2.83327 12.7198H2.02363C2.02363 12.7198 1.10591 12.8112 0.999977 11.7477L1.0043 9.66926C1.0043 9.66926 1.0443 8.68474 2.15011 8.7524L3.00405 8.75466C3.2905 8.75466 3.54777 8.57197 3.65046 8.29229C3.74559 8.03178 3.88287 7.69232 4.05582 7.35851C4.20066 7.07995 4.15634 6.73487 3.94448 6.50819L3.32185 5.84507C3.32185 5.84507 2.60194 5.17856 3.36617 4.38237L4.70871 2.98848C4.70871 2.98848 5.35944 2.384 6.0307 3.08433L6.73548 3.81963C6.9387 4.03052 7.24461 4.09142 7.5062 3.96737C7.73752 3.85798 8.05532 3.72265 8.4423 3.59972C8.73307 3.50725 8.93305 3.22644 8.93197 2.90841L8.92981 2.04005C8.92981 2.04005 8.78064 0.996869 10.1534 1.00025L11.8667 1.00815C11.8667 1.00815 12.7445 1.00026 12.7293 2.2577L12.7196 3.08433C12.7164 3.38657 12.8926 3.66062 13.1628 3.7655C13.4039 3.8591 13.7206 3.99894 14.0611 4.18953C14.327 4.33839 14.6567 4.28652 14.8718 4.06435L15.4933 3.42041C15.4933 3.42041 16.0522 2.79 16.7742 3.35162L16.8759 3.45311L18.187 4.82897C18.187 4.82897 18.6054 5.24286 18.3935 5.85974C18.3935 5.85974 18.3384 6.03904 18.0703 6.31872L17.4336 6.98297C17.2315 7.19386 17.1742 7.51188 17.2909 7.78367C17.4012 8.0408 17.5363 8.38476 17.6433 8.75127C17.732 9.05126 17.9946 9.25764 18.2951 9.26215L19.3123 9.27568C19.3123 9.27568 19.9998 9.31967 20.1371 10.1147" stroke="#0C3D6E" stroke-width="2" stroke-linecap="round" stroke-linejoin="round"/>
<path id="Vector_2" d="M10.5772 15.1711C12.7914 15.1711 14.5864 13.2983 14.5864 10.9882C14.5864 8.67813 12.7914 6.80542 10.5772 6.80542C8.36293 6.80542 6.56794 8.67813 6.56794 10.9882C6.56794 13.2983 8.36293 15.1711 10.5772 15.1711Z" stroke="#0C3D6E" stroke-width="2" stroke-linecap="round" stroke-linejoin="round"/>
</g>
<g id="Group_3">
<path id="Vector_3" d="M22.0145 11.1644L13.7007 19.8381L16.6862 22.9529L25 14.2792L22.0145 11.1644Z" stroke="#0C3D6E" stroke-width="2" stroke-linecap="round" stroke-linejoin="round"/>
<path id="Vector_4" d="M16.6867 22.953L11.7403 24.9998L13.7011 19.8381" stroke="#0C3D6E" stroke-width="2" stroke-linecap="round" stroke-linejoin="round"/>
</g>
</g>
</svg>
