<svg width="20" height="26" viewBox="0 0 20 26" fill="none" xmlns="http://www.w3.org/2000/svg">
<g id="Fingerprint" clip-path="url(#clip0_435_12850)">
<path id="Vector" d="M18.9629 17.6016C18.8584 17.5816 18.7521 17.6026 18.6637 17.66C17.8539 18.1869 17.1717 18.3848 16.5783 18.2643C15.5893 18.0636 14.8868 16.9932 14.1432 15.8597C13.6578 15.12 13.1563 14.3555 12.5422 13.812C11.7976 13.1531 10.9969 12.9144 10.0942 13.0835C8.6618 13.3513 7.80639 14.4438 7.68574 16.1602C7.45917 19.3794 9.93703 24.1705 13.3534 25.2918C13.3948 25.3054 13.4379 25.3122 13.4814 25.3122C13.6526 25.3122 13.8045 25.2069 13.8592 25.0498C13.9297 24.8481 13.8178 24.6285 13.6094 24.5602C12.2171 24.1033 10.8405 22.8472 9.83286 21.1135C8.88556 19.484 8.38052 17.6518 8.48188 16.2124C8.54817 15.269 8.90801 14.0917 10.2457 13.8419C11.6959 13.5706 12.5576 14.8837 13.4699 16.2742C14.2695 17.493 15.0965 18.7531 16.4149 19.0206C17.23 19.1859 18.1113 18.9507 19.1091 18.3013C19.1975 18.2439 19.2575 18.1563 19.2782 18.0551C19.2985 17.954 19.2771 17.8511 19.2179 17.7656C19.1586 17.68 19.0681 17.622 18.9636 17.6019L18.9629 17.6016Z" fill="#0C3D6E"/>
<path id="Vector_2" d="M5.07636 2.08202C5.15141 2.08202 5.22507 2.06131 5.2889 2.02261C6.55957 1.24724 8.11257 0.826631 9.90511 0.772314C11.3946 0.817465 12.7228 1.11587 13.8528 1.65903C13.9482 1.70486 14.0566 1.71199 14.1576 1.6794C14.2586 1.64647 14.3404 1.57756 14.3877 1.48522C14.435 1.39288 14.4424 1.28798 14.4087 1.19021C14.3751 1.09244 14.3035 1.01334 14.2081 0.967514C12.9708 0.373087 11.5272 0.047527 9.91704 0C9.90897 0 9.9009 0 9.89284 0C7.95123 0.0570324 6.259 0.517705 4.86347 1.36912C4.67724 1.4825 4.62147 1.7215 4.73861 1.90176C4.81226 2.01481 4.93853 2.08202 5.07636 2.08202Z" fill="#0C3D6E"/>
<path id="Vector_3" d="M19.2617 15.5695C19.1558 15.5651 19.0534 15.6018 18.9752 15.6717C18.2439 16.3255 17.64 16.6154 17.1279 16.5581C16.3514 16.4708 15.6994 15.5369 15.0092 14.548C13.9402 13.0163 12.6095 11.1101 10.0878 11.3824C8.06277 11.6013 6.41051 13.1528 6.07031 15.1553C5.59508 17.9527 6.51397 20.2951 7.36869 21.7677C8.41664 23.5731 9.97421 25.0729 11.5349 25.7793C11.5882 25.8034 11.645 25.8157 11.7036 25.8157C11.8579 25.8157 12 25.7284 12.0652 25.593C12.1585 25.4001 12.0719 25.1696 11.8727 25.0797C9.27206 23.9027 6.08223 19.8425 6.85733 15.281C7.14001 13.6182 8.50468 12.3309 10.1762 12.1503C12.2185 11.93 13.3012 13.4807 14.3481 14.9809C15.1439 16.1208 15.8955 17.1977 17.036 17.3256C17.109 17.3338 17.1819 17.3379 17.2559 17.3379C17.95 17.3379 18.6921 16.9767 19.5167 16.2393C19.5949 16.1694 19.6405 16.074 19.6447 15.9708C19.6489 15.8676 19.6114 15.7691 19.5391 15.6934C19.4669 15.6177 19.3683 15.5736 19.262 15.5695H19.2617Z" fill="#0C3D6E"/>
<path id="Vector_4" d="M19.4104 14.0764C19.3041 14.0672 19.2007 14.0984 19.119 14.1646C18.5199 14.6484 18.0212 14.8561 17.5947 14.7998C16.8852 14.7061 16.29 13.8717 15.6005 12.9052C14.4186 11.2482 12.9476 9.18617 9.89038 9.52463C7.19613 9.8227 5.00481 11.8776 4.56115 14.5214C4.13923 17.0359 4.46435 19.4792 5.50179 21.5863C6.40665 23.4249 7.84286 24.9733 9.54527 25.9466C9.60665 25.9815 9.67679 26.0002 9.74799 26.0002C9.88863 26.0002 10.0205 25.9276 10.0917 25.8105C10.2036 25.6271 10.1404 25.3898 9.95106 25.2815C7.26242 23.7447 4.44401 20.0369 5.34852 14.6453C5.73502 12.3413 7.63979 10.5512 9.98087 10.2922C12.5625 10.007 13.8276 11.7798 14.9436 13.3444C15.7404 14.4613 16.4286 15.4258 17.4867 15.5657C18.1482 15.6529 18.8492 15.3888 19.63 14.758C19.7117 14.6918 19.7622 14.5988 19.7716 14.4963C19.7811 14.3934 19.7489 14.2933 19.6805 14.2142C19.6121 14.1351 19.516 14.0862 19.4101 14.077L19.4104 14.0764Z" fill="#0C3D6E"/>
<path id="Vector_5" d="M18.2011 19.2637C17.0767 19.8778 16.188 19.9539 15.4041 19.5023C14.6928 19.0926 14.131 18.2884 13.5361 17.4366C12.9406 16.5838 12.3248 15.7019 11.4995 15.2246C11.073 14.9781 10.5557 14.9673 10.1155 15.1957C9.67329 15.4252 9.39516 15.8506 9.37167 16.3333C9.30433 17.7045 9.91879 19.5017 11.0155 21.1414C12.1634 22.8574 13.6063 24.0622 14.9745 24.4465C15.0109 24.4567 15.0481 24.4618 15.086 24.4618C15.2624 24.4618 15.4199 24.3474 15.469 24.1831C15.5304 23.9787 15.4083 23.7638 15.1972 23.7044C12.5604 22.9637 10.0489 18.8125 10.1689 16.3693C10.179 16.1602 10.3004 15.9758 10.4929 15.8757C10.6837 15.7766 10.9071 15.7806 11.0902 15.8869C11.7632 16.2763 12.3034 17.0496 12.8754 17.8688C13.4909 18.7504 14.1275 19.6619 15.0057 20.1681C16.041 20.7649 17.2145 20.6888 18.5932 19.9359C18.6862 19.8853 18.7528 19.8024 18.7816 19.7033C18.81 19.6039 18.797 19.4996 18.7447 19.41C18.6367 19.2247 18.3926 19.1588 18.2011 19.2637Z" fill="#0C3D6E"/>
<path id="Vector_6" d="M7.41253 24.9146C4.47136 22.4303 3.09408 18.8763 3.53458 14.9071C3.92108 11.4241 6.77526 8.76831 10.3211 8.59246C13.3418 8.44241 14.6493 10.314 15.7001 11.8182C16.3795 12.7908 16.9662 13.631 17.8753 13.7997C18.4154 13.9002 18.9913 13.743 19.6349 13.319C19.8169 13.1992 19.8639 12.9585 19.7404 12.7826C19.6166 12.6065 19.368 12.561 19.1863 12.6805C18.7268 12.9829 18.3474 13.1011 18.0257 13.0413C17.4421 12.933 16.9413 12.2161 16.3612 11.3857C15.2599 9.80882 13.7518 7.64939 10.2804 7.82117C8.37947 7.91554 6.57079 8.68005 5.18754 9.97414C3.81481 11.2584 2.94607 12.9809 2.7416 14.8243C2.27233 19.0511 3.74502 22.8411 6.88819 25.4961C6.96079 25.5576 7.05409 25.5912 7.15054 25.5912C7.26592 25.5912 7.37535 25.543 7.4511 25.4588C7.52125 25.381 7.55562 25.2816 7.54861 25.1787C7.54124 25.0759 7.49319 24.9818 7.41288 24.9139L7.41253 24.9146Z" fill="#0C3D6E"/>
<path id="Vector_7" d="M1.89986 14.9302C2.67321 9.91817 5.94966 6.6792 10.2471 6.6792C13.9784 6.6792 15.4486 8.57383 16.6302 10.0961C17.4779 11.1882 18.2102 12.1316 19.4995 11.7184C19.6005 11.6862 19.6826 11.6173 19.7306 11.5253C19.7783 11.4333 19.7864 11.3284 19.7527 11.2306C19.6836 11.0286 19.4574 10.9186 19.2487 10.9855C18.5371 11.2136 18.0801 10.6786 17.2682 9.63233C16.6814 8.87631 15.9509 7.93527 14.8615 7.19623C13.5828 6.32886 12.0733 5.90723 10.2471 5.90723C7.80323 5.90723 5.64102 6.82687 3.99508 8.56636C2.49434 10.1524 1.49688 12.3135 1.11074 14.8165C0.755806 17.1182 1.17667 19.5998 2.36212 22.192C2.42595 22.3319 2.56939 22.4219 2.72722 22.4219C2.78298 22.4219 2.83735 22.4106 2.88855 22.3886C2.98605 22.3468 3.06076 22.2708 3.09934 22.1747C3.13792 22.0786 3.13511 21.9734 3.09197 21.8794C1.96896 19.4229 1.56773 17.0849 1.90021 14.9302H1.89986Z" fill="#0C3D6E"/>
<path id="Vector_8" d="M11.1842 4.55077C13.8213 4.86106 15.2754 6.34764 16.558 7.65972C17.3303 8.44935 17.9973 9.13136 18.8121 9.43418C19.0176 9.51056 19.2487 9.41075 19.3273 9.21182C19.3655 9.11541 19.3627 9.01051 19.3192 8.91647C19.2757 8.8221 19.1972 8.75013 19.0976 8.71312C18.4519 8.47311 17.8423 7.85017 17.137 7.12878C15.8295 5.79191 14.2025 4.12778 11.2799 3.78423C7.21682 3.30625 4.5117 5.32173 2.95835 7.09653C1.26926 9.02612 0.2434 11.4782 0.00490813 12.9396C-0.0115758 13.0415 0.0136762 13.1437 0.0764556 13.2272C0.139235 13.3107 0.231475 13.3653 0.337043 13.3813C0.357735 13.3844 0.378779 13.386 0.399471 13.386C0.596928 13.386 0.76247 13.2489 0.792982 13.0601C0.952211 12.0845 1.73678 9.68641 3.5672 7.59556C4.99429 5.96572 7.4739 4.1142 11.1838 4.55077H11.1842Z" fill="#0C3D6E"/>
<path id="Vector_9" d="M0.82841 8.03111C0.884526 8.05826 0.94485 8.07218 1.00728 8.07218C1.15914 8.07218 1.29592 7.99071 1.36396 7.85933C2.96852 4.76804 6.00438 2.80619 9.4853 2.61167C12.9452 2.41782 16.2037 4.06124 18.2022 7.00724C18.3228 7.18512 18.5708 7.23503 18.7546 7.11825C18.9383 7.00147 18.9899 6.76146 18.8692 6.58357C17.7518 4.93642 16.3146 3.68272 14.5978 2.85813C13.0052 2.09328 11.2214 1.74124 9.43936 1.84105C7.64857 1.9412 5.90547 2.49251 4.39842 3.43524C2.81876 4.42347 1.52284 5.83366 0.650945 7.5134C0.603246 7.6054 0.59518 7.7103 0.628849 7.80807C0.662518 7.90584 0.733364 7.98528 0.82841 8.03178V8.03111Z" fill="#0C3D6E"/>
<path id="Vector_10" d="M16.921 22.0027C14.3726 21.7162 12.7572 19.2529 12.021 17.8098C11.9737 17.7175 11.8923 17.6482 11.7913 17.6149C11.6903 17.5817 11.5823 17.5888 11.4865 17.6343C11.3911 17.6801 11.3196 17.7589 11.2852 17.8566C11.2512 17.9544 11.2582 18.059 11.3052 18.1516C12.1133 19.7353 13.9051 22.4413 16.8287 22.7699C16.8442 22.7716 16.8596 22.7726 16.875 22.7726C17.0774 22.7726 17.2475 22.6256 17.271 22.4311C17.2833 22.3286 17.2535 22.2278 17.1875 22.147C17.1212 22.0662 17.0265 22.0149 16.9206 22.003L16.921 22.0027Z" fill="#0C3D6E"/>
</g>
<defs>
<clipPath id="clip0_435_12850">
<rect width="19.8095" height="26" fill="white"/>
</clipPath>
</defs>
</svg>
