<svg width="16" height="21" viewBox="0 0 16 21" fill="none" xmlns="http://www.w3.org/2000/svg">
<g id="Fingerprint" clip-path="url(#clip0_333_3808)">
<path id="Vector" d="M15.3162 14.2168C15.2318 14.2006 15.146 14.2176 15.0746 14.2639C14.4205 14.6895 13.8695 14.8493 13.3902 14.752C12.5914 14.59 12.024 13.7254 11.4235 12.8099C11.0314 12.2124 10.6263 11.5949 10.1303 11.1559C9.5289 10.6237 8.88218 10.431 8.15303 10.5675C6.99613 10.7839 6.30522 11.6662 6.20777 13.0525C6.02478 15.6527 8.02612 19.5224 10.7855 20.4281C10.8189 20.4391 10.8538 20.4446 10.8889 20.4446C11.0271 20.4446 11.1498 20.3596 11.194 20.2326C11.2509 20.0697 11.1606 19.8923 10.9923 19.8372C9.8677 19.4681 8.75584 18.4536 7.94199 17.0533C7.17686 15.7372 6.76894 14.2574 6.85081 13.0948C6.90435 12.3328 7.19499 11.3819 8.2754 11.1801C9.44675 10.961 10.1428 12.0216 10.8796 13.1447C11.5254 14.129 12.1934 15.1468 13.2582 15.3629C13.9166 15.4964 14.6284 15.3064 15.4344 14.7819C15.5057 14.7356 15.5542 14.6648 15.5709 14.5831C15.5873 14.5014 15.57 14.4183 15.5222 14.3492C15.4743 14.2801 15.4012 14.2332 15.3168 14.217L15.3162 14.2168Z" fill="#0C3D6E"/>
<path id="Vector_2" d="M4.10012 1.68163C4.16075 1.68163 4.22023 1.66491 4.27179 1.63365C5.2981 1.00739 6.55245 0.667663 8.00027 0.623792C9.20334 0.66026 10.2761 0.901277 11.1888 1.33999C11.2659 1.377 11.3534 1.38276 11.435 1.35644C11.5166 1.32984 11.5826 1.27418 11.6208 1.1996C11.6591 1.12502 11.665 1.04029 11.6378 0.961326C11.6106 0.882358 11.5528 0.81847 11.4758 0.781454C10.4764 0.30134 9.31042 0.0383872 8.0099 0C8.00339 0 7.99687 0 7.99036 0C6.42214 0.0460647 5.05533 0.418146 3.92818 1.10583C3.77776 1.19741 3.73272 1.39044 3.82733 1.53604C3.88682 1.62734 3.9888 1.68163 4.10012 1.68163Z" fill="#0C3D6E"/>
<path id="Vector_3" d="M15.5575 12.5754C15.4719 12.5719 15.3892 12.6015 15.326 12.658C14.7354 13.1861 14.2476 13.4202 13.834 13.3739C13.2069 13.3034 12.6802 12.5491 12.1228 11.7504C11.2593 10.5132 10.1846 8.97361 8.14782 9.19351C6.51219 9.37036 5.17767 10.6234 4.90289 12.2409C4.51906 14.5003 5.26124 16.3922 5.95158 17.5817C6.79801 19.0398 8.05604 20.2512 9.31662 20.8218C9.35968 20.8413 9.40557 20.8512 9.45288 20.8512C9.57752 20.8512 9.69224 20.7807 9.74493 20.6713C9.82028 20.5155 9.75031 20.3294 9.58941 20.2567C7.48892 19.3061 4.91253 16.0267 5.53857 12.3424C5.76689 10.9994 6.86911 9.95961 8.21921 9.81374C9.86872 9.63578 10.7432 10.8883 11.5888 12.1C12.2315 13.0207 12.8386 13.8905 13.7598 13.9938C13.8187 14.0004 13.8776 14.0037 13.9374 14.0037C14.498 14.0037 15.0974 13.712 15.7634 13.1164C15.8266 13.0599 15.8634 12.9829 15.8668 12.8995C15.8702 12.8162 15.8399 12.7366 15.7815 12.6755C15.7232 12.6144 15.6436 12.5787 15.5578 12.5754H15.5575Z" fill="#0C3D6E"/>
<path id="Vector_4" d="M15.6777 11.3695C15.5918 11.3621 15.5083 11.3873 15.4423 11.4408C14.9584 11.8315 14.5556 11.9993 14.2112 11.9538C13.6381 11.8781 13.1574 11.2041 12.6004 10.4235C11.6458 9.08517 10.4577 7.41971 7.98843 7.69309C5.81231 7.93383 4.0424 9.59353 3.68405 11.729C3.34327 13.7599 3.60587 15.7333 4.4438 17.4352C5.17465 18.9202 6.33467 20.1709 7.70969 20.957C7.75926 20.9852 7.81592 21.0003 7.87342 21.0003C7.98702 21.0003 8.09353 20.9416 8.15103 20.847C8.2414 20.6989 8.19041 20.5073 8.03744 20.4198C5.86584 19.1785 3.58944 16.1838 4.32001 11.829C4.63218 9.96808 6.17065 8.52225 8.06152 8.31304C10.1467 8.08272 11.1685 9.51456 12.0699 10.7783C12.7135 11.6804 13.2693 12.4594 14.1239 12.5724C14.6582 12.6428 15.2244 12.4295 15.855 11.9201C15.921 11.8666 15.9618 11.7915 15.9695 11.7087C15.9771 11.6256 15.951 11.5447 15.8958 11.4808C15.8406 11.4169 15.7629 11.3774 15.6774 11.37L15.6777 11.3695Z" fill="#0C3D6E"/>
<path id="Vector_5" d="M14.701 15.5592C13.7928 16.0553 13.0749 16.1167 12.4418 15.752C11.8673 15.421 11.4135 14.7715 10.9331 14.0835C10.4521 13.3947 9.95466 12.6824 9.28811 12.2969C8.94365 12.0978 8.52582 12.089 8.17031 12.2736C7.8131 12.4589 7.58846 12.8025 7.56948 13.1924C7.51509 14.2999 8.01139 15.7514 8.89719 17.0758C9.82436 18.4619 10.9898 19.435 12.0948 19.7454C12.1243 19.7536 12.1543 19.7577 12.1849 19.7577C12.3274 19.7577 12.4546 19.6653 12.4942 19.5326C12.5438 19.3675 12.4452 19.194 12.2747 19.146C10.145 18.5477 8.11648 15.1948 8.21337 13.2215C8.22158 13.0525 8.31959 12.9037 8.47511 12.8228C8.62921 12.7427 8.80966 12.746 8.95753 12.8318C9.50114 13.1463 9.93738 13.7709 10.3994 14.4326C10.8966 15.1446 11.4107 15.8809 12.12 16.2897C12.9563 16.7717 13.9041 16.7103 15.0177 16.1021C15.0927 16.0613 15.1465 15.9944 15.1698 15.9143C15.1927 15.834 15.1822 15.7498 15.14 15.6774C15.0528 15.5277 14.8556 15.4745 14.701 15.5592Z" fill="#0C3D6E"/>
<path id="Vector_6" d="M5.98702 20.1233C3.61147 18.1168 2.49904 15.2463 2.85483 12.0404C3.16701 9.22714 5.47231 7.08212 8.33623 6.94009C10.7761 6.81889 11.8321 8.33053 12.6808 9.54548C13.2295 10.331 13.7035 11.0097 14.4377 11.146C14.874 11.2271 15.3391 11.1002 15.8589 10.7577C16.0059 10.6609 16.0439 10.4665 15.9442 10.3245C15.8442 10.1822 15.6433 10.1454 15.4966 10.2419C15.1255 10.4862 14.819 10.5817 14.5592 10.5334C14.0879 10.4459 13.6833 9.86684 13.2148 9.19616C12.3253 7.92252 11.1072 6.17837 8.30337 6.31712C6.76801 6.39334 5.30716 7.01083 4.18992 8.05606C3.08117 9.09333 2.3795 10.4846 2.21435 11.9735C1.83532 15.3875 3.0248 18.4486 5.56352 20.593C5.62216 20.6427 5.69751 20.6698 5.77541 20.6698C5.86861 20.6698 5.95699 20.6309 6.01818 20.5629C6.07483 20.5001 6.10259 20.4198 6.09693 20.3367C6.09098 20.2536 6.05217 20.1776 5.9873 20.1228L5.98702 20.1233Z" fill="#0C3D6E"/>
<path id="Vector_7" d="M1.53455 12.0591C2.15918 8.01085 4.80554 5.39476 8.27652 5.39476C11.2903 5.39476 12.4778 6.92504 13.4321 8.15453C14.1168 9.03661 14.7083 9.7986 15.7496 9.4649C15.8312 9.43885 15.8975 9.38319 15.9363 9.30888C15.9748 9.23458 15.9813 9.14985 15.9542 9.07088C15.8983 8.90774 15.7156 8.8189 15.5471 8.87291C14.9723 9.05717 14.6032 8.62504 13.9474 7.77998C13.4735 7.16934 12.8834 6.40928 12.0036 5.81236C10.9708 5.11179 9.75154 4.77124 8.27652 4.77124C6.30266 4.77124 4.55626 5.51403 3.22684 6.91901C2.01471 8.20004 1.20907 9.94556 0.897181 11.9672C0.610506 13.8262 0.950437 15.8306 1.90791 17.9243C1.95947 18.0373 2.07533 18.11 2.2028 18.11C2.24784 18.11 2.29175 18.1009 2.33311 18.0831C2.41186 18.0494 2.4722 17.988 2.50336 17.9104C2.53452 17.8328 2.53225 17.7478 2.49741 17.6718C1.59036 15.6877 1.26629 13.7994 1.53484 12.0591H1.53455Z" fill="#0C3D6E"/>
<path id="Vector_8" d="M9.0334 3.67553C11.1633 3.92615 12.3378 5.12684 13.3738 6.1866C13.9975 6.82438 14.5363 7.37524 15.1944 7.61982C15.3604 7.68151 15.547 7.6009 15.6105 7.44022C15.6414 7.36235 15.6391 7.27762 15.604 7.20167C15.5689 7.12544 15.5054 7.06732 15.425 7.03743C14.9034 6.84357 14.4111 6.34043 13.8414 5.75776C12.7854 4.67799 11.4713 3.33389 9.11073 3.0564C5.82898 2.67033 3.64407 4.29823 2.38944 5.73171C1.02518 7.29024 0.196598 9.27074 0.00397042 10.4511C-0.00934355 10.5334 0.0110523 10.6159 0.0617588 10.6834C0.112465 10.7508 0.186967 10.795 0.272233 10.8079C0.288946 10.8103 0.305943 10.8117 0.322656 10.8117C0.482141 10.8117 0.615847 10.7009 0.640492 10.5485C0.769099 9.76045 1.40279 7.82354 2.88121 6.13478C4.03386 4.81837 6.03662 3.32292 9.03311 3.67553H9.0334Z" fill="#0C3D6E"/>
<path id="Vector_9" d="M0.669084 6.48669C0.714408 6.50863 0.763132 6.51987 0.813555 6.51987C0.936214 6.51987 1.04669 6.45406 1.10165 6.34795C2.39763 3.85113 4.84967 2.26657 7.66119 2.10945C10.4557 1.95289 13.0876 3.28026 14.7017 5.65972C14.7992 5.8034 14.9995 5.8437 15.1479 5.74938C15.2963 5.65506 15.338 5.4612 15.2405 5.31753C14.338 3.98713 13.1771 2.97453 11.7905 2.30852C10.5041 1.69076 9.06341 1.40642 7.62408 1.48703C6.17767 1.56792 4.76979 2.01321 3.55255 2.77465C2.27668 3.57283 1.22997 4.71183 0.525746 6.06854C0.487221 6.14285 0.480706 6.22758 0.5079 6.30655C0.535095 6.38551 0.592316 6.44967 0.669084 6.48724V6.48669Z" fill="#0C3D6E"/>
<path id="Vector_10" d="M13.6669 17.7714C11.6086 17.5399 10.3038 15.5504 9.70924 14.3848C9.671 14.3102 9.60528 14.2543 9.52369 14.2274C9.44211 14.2005 9.35486 14.2063 9.27753 14.243C9.20047 14.2801 9.14269 14.3437 9.11492 14.4226C9.08745 14.5016 9.09311 14.5861 9.13107 14.6609C9.78374 15.94 11.231 18.1256 13.5924 18.391C13.6049 18.3924 13.6173 18.3932 13.6298 18.3932C13.7932 18.3932 13.9306 18.2745 13.9496 18.1174C13.9595 18.0346 13.9354 17.9532 13.8822 17.8879C13.8286 17.8226 13.7522 17.7812 13.6666 17.7716L13.6669 17.7714Z" fill="#0C3D6E"/>
</g>
<defs>
<clipPath id="clip0_333_3808">
<rect width="16" height="21" fill="white"/>
</clipPath>
</defs>
</svg>
