<svg width="20" height="21" viewBox="0 0 20 21" fill="none" xmlns="http://www.w3.org/2000/svg">
<g id="Icons">
<path id="Minus" fill-rule="evenodd" clip-rule="evenodd" d="M5.83203 9.66663V11.3333H14.1654V9.66663H5.83203ZM9.99935 2.16663C5.39935 2.16663 1.66602 5.89996 1.66602 10.5C1.66602 15.1 5.39935 18.8333 9.99935 18.8333C14.5993 18.8333 18.3327 15.1 18.3327 10.5C18.3327 5.89996 14.5993 2.16663 9.99935 2.16663ZM9.9987 17.1666C6.3237 17.1666 3.33203 14.1749 3.33203 10.4999C3.33203 6.82492 6.3237 3.83325 9.9987 3.83325C13.6737 3.83325 16.6654 6.82492 16.6654 10.4999C16.6654 14.1749 13.6737 17.1666 9.9987 17.1666Z" fill="#0C3D6E"/>
</g>
</svg>
