<svg width="20" height="20" viewBox="0 0 20 20" fill="none" xmlns="http://www.w3.org/2000/svg">
<g id="Icons">
<path id="Globe" fill-rule="evenodd" clip-rule="evenodd" d="M9.99102 1.6665C5.39102 1.6665 1.66602 5.39984 1.66602 9.99984C1.66602 14.5998 5.39102 18.3332 9.99102 18.3332C14.5993 18.3332 18.3327 14.5998 18.3327 9.99984C18.3327 5.39984 14.5993 1.6665 9.99102 1.6665ZM15.7665 6.6665H13.3082C13.0415 5.62483 12.6582 4.62483 12.1582 3.69983C13.6915 4.22483 14.9665 5.2915 15.7665 6.6665ZM9.99987 3.36646C10.6915 4.36646 11.2332 5.47479 11.5915 6.66646H8.4082C8.76654 5.47479 9.3082 4.36646 9.99987 3.36646ZM3.5487 11.6665C3.41536 11.1331 3.33203 10.5748 3.33203 9.9998C3.33203 9.4248 3.41536 8.86646 3.5487 8.33313H6.36537C6.2987 8.88313 6.2487 9.43313 6.2487 9.9998C6.2487 10.5665 6.2987 11.1165 6.36537 11.6665H3.5487ZM4.23242 13.3331H6.69076C6.95742 14.3748 7.34076 15.3748 7.84076 16.2998C6.30742 15.7748 5.03242 14.7165 4.23242 13.3331ZM6.69076 6.6665H4.23242C5.03242 5.28316 6.30742 4.22483 7.84076 3.69983C7.34076 4.62483 6.95742 5.62483 6.69076 6.6665ZM9.99987 16.6331C9.3082 15.6331 8.76654 14.5248 8.4082 13.3331H11.5915C11.2332 14.5248 10.6915 15.6331 9.99987 16.6331ZM11.9493 11.6665H8.04935C7.97435 11.1165 7.91602 10.5665 7.91602 9.99984C7.91602 9.43317 7.97435 8.87484 8.04935 8.33317H11.9493C12.0243 8.87484 12.0827 9.43317 12.0827 9.99984C12.0827 10.5665 12.0243 11.1165 11.9493 11.6665ZM12.1582 16.2998C12.6582 15.3748 13.0415 14.3748 13.3082 13.3331H15.7665C14.9665 14.7081 13.6915 15.7748 12.1582 16.2998ZM13.6327 11.6665C13.6993 11.1165 13.7493 10.5665 13.7493 9.99984C13.7493 9.43317 13.6993 8.88317 13.6327 8.33317H16.4493C16.5827 8.8665 16.666 9.42484 16.666 9.99984C16.666 10.5748 16.5827 11.1332 16.4493 11.6665H13.6327Z" fill="white"/>
</g>
</svg>
