<svg width="20" height="21" viewBox="0 0 20 21" fill="none" xmlns="http://www.w3.org/2000/svg">
<g id="Icons">
<path id="Clock" fill-rule="evenodd" clip-rule="evenodd" d="M9.99102 2.16663C5.39102 2.16663 1.66602 5.89996 1.66602 10.5C1.66602 15.1 5.39102 18.8333 9.99102 18.8333C14.5993 18.8333 18.3327 15.1 18.3327 10.5C18.3327 5.89996 14.5993 2.16663 9.99102 2.16663ZM9.9987 17.1666C6.31536 17.1666 3.33203 14.1833 3.33203 10.4999C3.33203 6.81659 6.31536 3.83325 9.9987 3.83325C13.682 3.83325 16.6654 6.81659 16.6654 10.4999C16.6654 14.1833 13.682 17.1666 9.9987 17.1666ZM10.416 6.33329H9.16602V11.3333L13.541 13.9583L14.166 12.9333L10.416 10.7083V6.33329Z" fill="#0C3D6E"/>
</g>
</svg>
