<svg width="61" height="38" viewBox="0 0 61 38" fill="none" xmlns="http://www.w3.org/2000/svg">
<g id="Layer_1-2">
<g id="Group">
<g id="Group_2">
<g id="Group_3">
<g id="Group_4">
<g id="_x3C_Radial_Repeat_x3E_">
<path id="Vector" d="M48.3962 11.403C49.0131 11.403 49.5133 10.9014 49.5133 10.2828C49.5133 9.66412 49.0131 9.1626 48.3962 9.1626C47.7792 9.1626 47.2791 9.66412 47.2791 10.2828C47.2791 10.9014 47.7792 11.403 48.3962 11.403Z" fill="white"/>
</g>
<g id="_x3C_Radial_Repeat_x3E_-2">
<path id="Vector_2" d="M52.0673 10.141C52.6843 10.141 53.1844 9.63947 53.1844 9.02081C53.1844 8.40216 52.6843 7.90063 52.0673 7.90063C51.4503 7.90063 50.9502 8.40216 50.9502 9.02081C50.9502 9.63947 51.4503 10.141 52.0673 10.141Z" fill="white"/>
</g>
<path id="Vector_3" d="M56.0499 11.2147C55.8499 10.6294 55.2145 10.3183 54.6307 10.5189C54.4158 10.5926 54.2389 10.7263 54.1096 10.8941C53.3313 11.3853 52.3095 11.7755 51.6454 11.9993C51.6196 11.9897 51.5937 11.9802 51.5665 11.972C51.0889 11.8356 50.5909 12.1139 50.4549 12.5942C50.3188 13.0731 50.5964 13.5724 51.0753 13.7089C51.489 13.8262 51.9176 13.6338 52.1122 13.2682C53.2238 12.8302 54.2715 12.7088 54.7818 12.676C54.9668 12.7115 55.1628 12.7019 55.3546 12.6365C55.9384 12.4359 56.2486 11.7987 56.0486 11.2134H56.0499V11.2147Z" fill="white"/>
<g id="_x3C_Radial_Repeat_x3E_-3">
<path id="Vector_4" d="M54.2485 16.5182C54.8654 16.5182 55.3656 16.0167 55.3656 15.398C55.3656 14.7794 54.8654 14.2778 54.2485 14.2778C53.6315 14.2778 53.1313 14.7794 53.1313 15.398C53.1313 16.0167 53.6315 16.5182 54.2485 16.5182Z" fill="white"/>
</g>
<g id="_x3C_Radial_Repeat_x3E_-4">
<path id="Vector_5" d="M50.5773 17.7804C51.1943 17.7804 51.6944 17.2789 51.6944 16.6602C51.6944 16.0416 51.1943 15.54 50.5773 15.54C49.9603 15.54 49.4602 16.0416 49.4602 16.6602C49.4602 17.2789 49.9603 17.7804 50.5773 17.7804Z" fill="white"/>
</g>
<g id="_x3C_Radial_Repeat_x3E_-5">
<path id="Vector_6" d="M47.6506 15.2235C48.2675 15.2235 48.7677 14.722 48.7677 14.1033C48.7677 13.4847 48.2675 12.9832 47.6506 12.9832C47.0336 12.9832 46.5334 13.4847 46.5334 14.1033C46.5334 14.722 47.0336 15.2235 47.6506 15.2235Z" fill="white"/>
</g>
</g>
<g id="Group_5">
<path id="Vector_7" d="M58.5168 16.9822C57.8174 18.2088 56.8078 19.2389 55.6036 19.9662C55.6159 20.0044 55.6349 20.048 55.6472 20.0862C56.8827 19.3467 57.9168 18.2907 58.6366 17.0327C58.5985 17.0136 58.5549 17.0013 58.5168 16.9822ZM46.9974 5.59487C45.7551 6.33437 44.721 7.39043 44.008 8.65523C44.0516 8.66751 44.0897 8.68661 44.1278 8.70571C44.8272 7.47911 45.8368 6.44898 47.041 5.71493C47.0287 5.67673 47.0097 5.63307 46.9974 5.59487ZM42.9045 12.9736C42.9236 14.4785 43.34 15.8825 44.0461 17.0968C44.0842 17.0709 44.1155 17.0463 44.1536 17.0204C43.4597 15.832 43.0501 14.4594 43.0311 12.9927C42.9875 12.9859 42.9494 12.9859 42.9045 12.9736ZM51.3475 21.1614H51.3216C49.8643 21.1614 48.4901 20.7821 47.2981 20.1176C47.2791 20.1558 47.2478 20.1872 47.2219 20.2186C48.4329 20.9022 49.8331 21.2869 51.3203 21.2869H51.3638C51.3515 21.2487 51.3447 21.2051 51.3447 21.16H51.3475V21.1614ZM58.5998 8.58565C58.5617 8.61157 58.5304 8.63613 58.4923 8.66205C59.1863 9.85045 59.5958 11.223 59.6149 12.6898C59.6584 12.6966 59.7033 12.7021 59.7414 12.7089C59.7224 11.2039 59.306 9.79997 58.5998 8.58565ZM51.323 4.39282H51.2794C51.2917 4.43648 51.2985 4.47469 51.2985 4.51971H51.3243C52.7816 4.51971 54.1559 4.89902 55.3478 5.56348C55.3669 5.52528 55.3914 5.4939 55.424 5.46252C54.213 4.78031 52.8129 4.39419 51.3257 4.39419H51.323V4.39282Z" fill="white"/>
<g id="Group_6">
<g id="_x3C_Radial_Repeat_x3E_-6">
<path id="Vector_8" d="M45.4897 20.4204C46.3757 20.4204 47.0939 19.7002 47.0939 18.8118C47.0939 17.9233 46.3757 17.2031 45.4897 17.2031C44.6037 17.2031 43.8855 17.9233 43.8855 18.8118C43.8855 19.7002 44.6037 20.4204 45.4897 20.4204Z" fill="#00BDD6"/>
</g>
<g id="_x3C_Radial_Repeat_x3E_-7">
<path id="Vector_9" d="M43.2488 12.3703C44.1347 12.3703 44.853 11.6501 44.853 10.7617C44.853 9.87329 44.1347 9.15308 43.2488 9.15308C42.3628 9.15308 41.6445 9.87329 41.6445 10.7617C41.6445 11.6501 42.3628 12.3703 43.2488 12.3703Z" fill="#F1762D"/>
</g>
<g id="_x3C_Radial_Repeat_x3E_-8">
<path id="Vector_10" d="M49.0819 6.39843C49.9679 6.39843 50.6861 5.67821 50.6861 4.78979C50.6861 3.90136 49.9679 3.18115 49.0819 3.18115C48.1959 3.18115 47.4777 3.90136 47.4777 4.78979C47.4777 5.67821 48.1959 6.39843 49.0819 6.39843Z" fill="#F7AD81"/>
</g>
<g id="_x3C_Radial_Repeat_x3E_-9">
<path id="Vector_11" d="M57.1548 8.47777C58.0407 8.47777 58.759 7.75756 58.759 6.86913C58.759 5.98071 58.0407 5.2605 57.1548 5.2605C56.2688 5.2605 55.5505 5.98071 55.5505 6.86913C55.5505 7.75756 56.2688 8.47777 57.1548 8.47777Z" fill="#FCE4D5"/>
</g>
<g id="_x3C_Radial_Repeat_x3E_-10">
<path id="Vector_12" d="M59.3957 16.5278C60.2817 16.5278 61 15.8076 61 14.9192C61 14.0308 60.2817 13.3105 59.3957 13.3105C58.5097 13.3105 57.7915 14.0308 57.7915 14.9192C57.7915 15.8076 58.5097 16.5278 59.3957 16.5278Z" fill="white"/>
</g>
<g id="_x3C_Radial_Repeat_x3E_-11">
<path id="Vector_13" d="M53.5639 22.4997C54.4499 22.4997 55.1682 21.7795 55.1682 20.8911C55.1682 20.0027 54.4499 19.2825 53.5639 19.2825C52.678 19.2825 51.9597 20.0027 51.9597 20.8911C51.9597 21.7795 52.678 22.4997 53.5639 22.4997Z" fill="#0089B3"/>
</g>
</g>
</g>
</g>
<g id="Group_7">
<path id="Vector_14" d="M8.2538 13.4482V20.0192C8.2538 21.9839 7.51496 23.819 6.23049 25.2053C4.88071 26.6556 3.17851 27.3952 1.28447 27.3952C0.578283 27.3952 0 26.8153 0 26.1072C0 25.399 0.578283 24.8192 1.28447 24.8192C3.66155 24.8192 5.68486 22.6293 5.68486 20.0205V13.4495C5.68486 12.6118 4.88071 11.8709 4.04662 11.8709C3.37173 11.8709 2.76215 11.2597 2.76215 10.5829C2.76215 9.90618 3.37173 9.29492 4.04662 9.29492C6.35975 9.29492 8.25516 11.1628 8.25516 13.4495H8.2538V13.4482Z" fill="white"/>
<path id="Vector_15" d="M14.004 1.788V19.5676C14.004 20.2757 13.4257 20.8556 12.7195 20.8556C12.0133 20.8556 11.4351 20.2757 11.4351 19.5676V1.788C11.4351 1.07987 12.046 0.5 12.7195 0.5C13.3931 0.5 14.004 1.07987 14.004 1.788Z" fill="white"/>
<path id="Vector_16" d="M24.0892 9.2937C26.5615 9.2937 28.5862 11.3226 28.5862 13.8031V16.3477C28.5862 17.3778 29.4856 18.2797 30.5129 18.2797H32.826V20.8557H30.5129C29.2611 20.8557 28.1685 20.3727 27.3004 19.5036C26.4336 20.3727 25.341 20.8557 24.0892 20.8557H18.339C17.6328 20.8557 17.0546 20.2758 17.0546 19.5677C17.0546 18.8596 17.6328 18.2797 18.339 18.2797H24.0892C25.1165 18.2797 26.0159 17.3778 26.0159 16.3477V13.8031C26.0159 12.7729 25.1165 11.8711 24.0892 11.8711H21.5516C20.5243 11.8711 19.6249 12.7729 19.6249 13.8031C19.6249 14.5112 19.0466 15.0911 18.3404 15.0911C17.6342 15.0911 17.0559 14.5112 17.0559 13.8031C17.0559 11.3239 19.0792 9.2937 21.5529 9.2937H24.0906H24.0892Z" fill="white"/>
<path id="Vector_17" d="M41.4255 19.5675C41.4255 20.2784 40.8499 20.8555 40.141 20.8555H31.86C31.0898 20.8555 30.5428 20.3084 30.5428 19.5675C30.5428 18.8267 31.0885 18.2795 31.86 18.2795H40.141C40.8499 18.2795 41.4255 18.8567 41.4255 19.5675Z" fill="white"/>
</g>
</g>
<g id="Group_8">
<path id="Vector_18" d="M7.71228 30.6055C7.71228 26.7565 10.7112 23.7112 14.5102 23.7112C18.3091 23.7112 21.3081 26.7565 21.3081 30.6055C21.3081 34.4545 18.3091 37.4999 14.5102 37.4999C10.7112 37.4999 7.71228 34.4545 7.71228 30.6055ZM19.648 30.6055C19.648 27.6188 17.3757 25.2625 14.5115 25.2625C11.6473 25.2625 9.39406 27.6175 9.39406 30.6055C9.39406 33.5936 11.6473 35.9295 14.5115 35.9295C17.3757 35.9295 19.648 33.5745 19.648 30.6055Z" fill="white"/>
<path id="Vector_19" d="M23.4674 31.487C23.4674 29.016 25.0335 27.3501 27.4011 27.3501C27.7834 27.3501 28.1073 27.6571 28.1073 28.0582C28.1073 28.4594 27.7821 28.7664 27.4011 28.7664C25.9874 28.7664 24.9954 29.7051 24.9954 31.4856V36.6745C24.9954 37.1152 24.6512 37.459 24.2321 37.459C23.813 37.459 23.4688 37.1138 23.4688 36.6745V31.4856L23.4674 31.487Z" fill="white"/>
<path id="Vector_20" d="M31.3348 35.9676V36.6758C31.3348 37.1165 30.9905 37.4603 30.5714 37.4603C30.1524 37.4603 29.8081 37.1151 29.8081 36.6758V24.5162C29.8081 24.0946 30.1333 23.7507 30.5714 23.7507C31.0096 23.7507 31.3348 24.0959 31.3348 24.5162V28.8823C32.2138 27.9436 33.4737 27.35 34.9065 27.35C37.7136 27.35 39.8525 29.5904 39.8525 32.4243C39.8525 35.2581 37.7136 37.4985 34.9065 37.4985C33.4737 37.4985 32.2138 36.9241 31.3348 35.9663V35.9676ZM38.3055 32.4243C38.3055 30.3558 36.7584 28.7663 34.8113 28.7663C32.8642 28.7663 31.4123 30.2794 31.3361 32.2701V32.5771C31.4123 34.5691 32.9023 36.0809 34.8113 36.0809C36.7203 36.0809 38.3055 34.4913 38.3055 32.4229V32.4243Z" fill="white"/>
<path id="Vector_21" d="M41.8187 25.167C41.8187 24.6308 42.2392 24.2092 42.7739 24.2092C43.3087 24.2092 43.7291 24.6308 43.7291 25.167C43.7291 25.7033 43.2896 26.1249 42.7739 26.1249C42.2582 26.1249 41.8187 25.6842 41.8187 25.167ZM42.0106 28.1537C42.0106 27.7321 42.3358 27.3883 42.7739 27.3883C43.212 27.3883 43.5372 27.7335 43.5372 28.1537V36.6758C43.5372 37.1165 43.193 37.4604 42.7739 37.4604C42.3548 37.4604 42.0106 37.1152 42.0106 36.6758V28.1537Z" fill="white"/>
<path id="Vector_22" d="M45.1034 28.2505C45.1034 27.848 45.4286 27.5424 45.8096 27.5424H46.8219V25.8191C46.8219 25.3784 47.1662 25.0537 47.5852 25.0537C48.0043 25.0537 48.3486 25.3798 48.3486 25.8191V27.5424H50.8699C51.2522 27.5424 51.5761 27.8494 51.5761 28.2505C51.5761 28.6517 51.2509 28.9586 50.8699 28.9586H48.3486V33.2865C48.3486 35.0671 49.3609 36.0249 50.8699 36.0249C51.2522 36.0249 51.5761 36.351 51.5761 36.733C51.5761 37.1355 51.2509 37.4603 50.8699 37.4603C48.5023 37.4603 46.8219 35.8516 46.8219 33.2852V28.9573H45.8096C45.4272 28.9573 45.1034 28.6312 45.1034 28.2492V28.2505Z" fill="white"/>
</g>
</g>
</g>
</svg>
