<svg width="24" height="24" viewBox="0 0 24 24" fill="none" xmlns="http://www.w3.org/2000/svg">
<g id="Organization icon" clip-path="url(#clip0_435_12785)">
<path id="Vector" d="M23.5714 20.3859H21.9943V17.1614C21.9943 16.8638 21.8014 16.6204 21.5657 16.6204H18.8057V13.9369H20.3829C20.6186 13.9369 20.8114 13.6934 20.8114 13.3959V10.8638C20.8114 10.5663 20.6186 10.3228 20.3829 10.3228H18.8057V6.83859C18.8057 6.54103 18.6129 6.29757 18.3771 6.29757H12.4286V3.61407H14.0057C14.2414 3.61407 14.43 3.38142 14.4343 3.08386C14.4343 3.08386 14.4343 3.07845 14.4343 3.07304V0.541028C14.4343 0.243463 14.2457 0 14.01 0H9.99857C9.76286 0 9.57 0.238052 9.57 0.535618V3.06763C9.57 3.36519 9.75429 3.60325 9.99 3.60866C9.99 3.60866 9.99429 3.60866 9.99857 3.60866H11.5757V6.29216H5.62714C5.39143 6.29216 5.19857 6.53562 5.19857 6.83318V10.3174H3.62143C3.38571 10.3174 3.19286 10.5609 3.19286 10.8584V13.3904C3.19286 13.688 3.38571 13.9315 3.62143 13.9315H5.19857V16.615H2.43857C2.20286 16.615 2.01 16.8584 2.01 17.156V20.3805H0.428571C0.192857 20.3805 0 20.6186 0 20.9161V23.4482C0 23.7457 0.192857 23.9892 0.428571 23.9892H4.44429C4.68 23.9892 4.87286 23.7457 4.87286 23.4482V20.9161C4.87286 20.6186 4.68429 20.3751 4.44857 20.3751H2.86714V17.6916H8.38714V20.3751H6.81C6.57429 20.3751 6.38143 20.6132 6.38143 20.9107V23.4427C6.38143 23.7403 6.57429 23.9838 6.81 23.9838H10.8214C11.0571 23.9838 11.25 23.7457 11.25 23.4482V20.9161C11.25 20.6186 11.0657 20.3805 10.83 20.3751C10.83 20.3751 10.8257 20.3751 10.8214 20.3751H9.24429V17.1506C9.24429 16.853 9.05143 16.6096 8.81571 16.6096H6.05571V13.9261H7.63714C7.87286 13.9261 8.06571 13.6826 8.06571 13.385V10.853C8.06571 10.5555 7.87286 10.312 7.63714 10.312H6.05571V7.3688H17.9529V10.312H16.3714C16.1357 10.312 15.9429 10.5555 15.9429 10.853V13.385C15.9429 13.6826 16.1357 13.9261 16.3714 13.9261H17.9529V16.6096H15.1929C14.9571 16.6096 14.7643 16.853 14.7643 17.1506V20.3751H13.1871C12.9514 20.3751 12.7629 20.6078 12.7586 20.9053C12.7586 20.9053 12.7586 20.9107 12.7586 20.9161V23.4482C12.7586 23.7457 12.9471 23.9892 13.1829 23.9892H17.1943C17.43 23.9892 17.6229 23.7457 17.6229 23.4482V20.9161C17.6229 20.6186 17.4343 20.3751 17.1986 20.3751H15.6214V17.6916H21.1414V20.3751H19.56C19.3243 20.3751 19.1314 20.6132 19.1314 20.9107V23.4427C19.1314 23.7403 19.3243 23.9838 19.56 23.9838H23.5757C23.8114 23.9838 24.0043 23.7403 24.0043 23.4427V20.9107C24.0043 20.6132 23.8157 20.3697 23.58 20.3697L23.5714 20.3859Z" fill="#0C3D6E"/>
</g>
<defs>
<clipPath id="clip0_435_12785">
<rect width="24" height="24" fill="white"/>
</clipPath>
</defs>
</svg>
