<svg width="20" height="21" viewBox="0 0 20 21" fill="none" xmlns="http://www.w3.org/2000/svg">
<g id="Sick Icon" clip-path="url(#clip0_333_3838)">
<path id="Vector" fill-rule="evenodd" clip-rule="evenodd" d="M9.99982 0.5C15.5191 0.5 19.9996 4.98093 19.9996 10.4998C19.9996 16.0187 15.5187 20.4996 9.99982 20.4996C4.48093 20.4996 0 16.0191 0 10.4998C0 4.98056 4.48093 0.5 9.99982 0.5ZM9.99982 2C4.95229 2 1.5 5.45266 1.5 10.5002C1.5 15.5477 4.95229 19 9.99982 19C15.0473 19 18.5 15.5477 18.5 10.5002C18.5 5.45266 15.0473 2 9.99982 2Z" fill="#0C3D6E"/>
<path id="Vector_2" fill-rule="evenodd" clip-rule="evenodd" d="M5.37033 9.79339C5.1523 9.8831 4.90228 9.77868 4.81256 9.56064C4.72285 9.34261 4.82727 9.09259 5.0453 9.00287C5.56594 8.78888 6.1068 8.6988 6.52853 8.66313C6.27998 8.39767 5.85347 8.105 5.13833 7.9866C4.90559 7.948 4.74785 7.72812 4.78646 7.49538C4.82506 7.26264 5.04494 7.1049 5.27768 7.14351C7.37052 7.48913 7.68084 8.97603 7.68084 8.97603C7.71246 9.10876 7.67863 9.24885 7.59002 9.3529C7.50141 9.45659 7.36831 9.51174 7.2319 9.50145C7.2319 9.50145 6.26417 9.42607 5.37033 9.79375V9.79339Z" fill="#0C3D6E"/>
<path id="Vector_3" fill-rule="evenodd" clip-rule="evenodd" d="M14.9546 9.00275C15.1727 9.09247 15.2771 9.34249 15.1874 9.56052C15.0977 9.77856 14.8477 9.88298 14.6296 9.79327C13.7358 9.42558 12.768 9.50096 12.768 9.50096C12.632 9.51162 12.4989 9.45647 12.4099 9.35242C12.3213 9.24873 12.2875 9.10864 12.3191 8.97554C12.3191 8.97554 12.6298 7.48864 14.7223 7.14302C14.955 7.10441 15.1753 7.26215 15.2135 7.49489C15.2521 7.72763 15.0944 7.94787 14.8616 7.98611C14.1465 8.10414 13.72 8.39718 13.4714 8.66265C13.8928 8.69831 14.434 8.78839 14.9546 9.00238V9.00275Z" fill="#0C3D6E"/>
<path id="Vector_4" fill-rule="evenodd" clip-rule="evenodd" d="M5.702 14.887C5.545 15.0631 5.27475 15.0782 5.09863 14.9212C4.92251 14.7642 4.90744 14.4939 5.06444 14.3178C5.63876 13.674 6.46273 12.8074 7.69188 12.8074C8.26179 12.8074 8.64013 13.0765 8.96958 13.4203C9.11702 13.5744 9.25379 13.7439 9.40564 13.8917C9.56228 14.0443 9.73693 14.1748 10.0002 14.1748C10.2634 14.1748 10.4381 14.0443 10.5947 13.8917C10.7466 13.7439 10.883 13.574 11.0308 13.4203C11.3602 13.0765 11.7386 12.8074 12.3085 12.8074C13.5376 12.8074 14.3612 13.674 14.9359 14.3178C15.0929 14.4939 15.0775 14.7642 14.9017 14.9212C14.7256 15.0782 14.4554 15.0627 14.2984 14.887C13.8557 14.3906 13.2564 13.6622 12.3089 13.6622C12.0456 13.6622 11.8709 13.7928 11.7143 13.9453C11.5625 14.0932 11.4261 14.263 11.2782 14.4167C10.9488 14.7605 10.5705 15.0296 10.0006 15.0296C9.43065 15.0296 9.0523 14.7605 8.72286 14.4167C8.57542 14.2627 8.43864 14.0932 8.28679 13.9453C8.13016 13.7928 7.95551 13.6622 7.69225 13.6622C6.74474 13.6622 6.14542 14.3906 5.70273 14.887H5.702Z" fill="#0C3D6E"/>
</g>
<defs>
<clipPath id="clip0_333_3838">
<rect width="20" height="20" fill="white" transform="translate(0 0.5)"/>
</clipPath>
</defs>
</svg>
