<svg width="24" height="25" viewBox="0 0 24 25" fill="none" xmlns="http://www.w3.org/2000/svg">
<g id="Icons">
<path id="icon" d="M12 15.5C12.8333 15.5 13.5417 15.2083 14.125 14.625C14.7083 14.0417 15 13.3333 15 12.5C15 11.6667 14.7083 10.9583 14.125 10.375C13.5417 9.79167 12.8333 9.5 12 9.5C11.1667 9.5 10.4583 9.79167 9.875 10.375C9.29167 10.9583 9 11.6667 9 12.5C9 13.3333 9.29167 14.0417 9.875 14.625C10.4583 15.2083 11.1667 15.5 12 15.5ZM12 17.5C10.6167 17.5 9.4375 17.0125 8.4625 16.0375C7.4875 15.0625 7 13.8833 7 12.5C7 11.1167 7.4875 9.9375 8.4625 8.9625C9.4375 7.9875 10.6167 7.5 12 7.5C13.3833 7.5 14.5625 7.9875 15.5375 8.9625C16.5125 9.9375 17 11.1167 17 12.5C17 13.8833 16.5125 15.0625 15.5375 16.0375C14.5625 17.0125 13.3833 17.5 12 17.5ZM5 13.5H1V11.5H5V13.5ZM23 13.5H19V11.5H23V13.5ZM11 5.5V1.5H13V5.5H11ZM11 23.5V19.5H13V23.5H11ZM6.4 8.25L3.875 5.825L5.3 4.35L7.7 6.85L6.4 8.25ZM18.7 20.65L16.275 18.125L17.6 16.75L20.125 19.175L18.7 20.65ZM16.25 6.9L18.675 4.375L20.15 5.8L17.65 8.2L16.25 6.9ZM3.85 19.2L6.375 16.775L7.75 18.1L5.325 20.625L3.85 19.2Z" fill="#0C3D6E"/>
</g>
</svg>
