<svg width="20" height="21" viewBox="0 0 20 21" fill="none" xmlns="http://www.w3.org/2000/svg">
<g id="Vectors">
<path id="Vector" d="M11.6667 2.16663H5.00004C4.08337 2.16663 3.33337 2.91663 3.33337 3.83329V17.1666C3.33337 18.0833 4.08337 18.8333 5.00004 18.8333H15C15.9167 18.8333 16.6667 18.0833 16.6667 17.1666V7.16663L11.6667 2.16663ZM5.00004 17.1666V3.83329H10.8334V7.16663H15V17.1666H5.00004ZM9.16671 16.3333H10.8334V15.5H11.6667C12.125 15.5 12.5 15.125 12.5 14.6666V12.1666C12.5 11.7083 12.125 11.3333 11.6667 11.3333H9.16671V10.5H12.5V8.83329H10.8334V7.99996H9.16671V8.83329H8.33337C7.87504 8.83329 7.50004 9.20829 7.50004 9.66663V12.1666C7.50004 12.625 7.87504 13 8.33337 13H10.8334V13.8333H7.50004V15.5H9.16671V16.3333Z" fill="#0C3D6E"/>
</g>
</svg>
